<svg width="394" height="302" viewBox="0 0 394 302" fill="none" xmlns="http://www.w3.org/2000/svg">
<g clip-path="url(#clip0_97_118)">
<path d="M0 3.54999C0 1.58938 1.58939 0 3.55 0H390.45C392.411 0 394 1.58939 394 3.55V298.45C394 300.411 392.411 302 390.45 302H3.54999C1.58938 302 0 300.411 0 298.45V3.54999Z" fill="#0749C0"/>
<path d="M40.8569 207.64L53.0169 94.04C55.4702 93.9333 57.8702 93.7733 60.2169 93.56C62.6702 93.24 65.0169 92.8667 67.2569 92.44C69.3902 92.0133 71.5769 91.6933 73.8169 91.48C76.0569 91.16 78.2435 90.9467 80.3769 90.84L79.8969 94.04C79.7902 95.1067 79.5769 96.3333 79.2569 97.72C79.0435 99 78.8302 100.493 78.6169 102.2C78.0835 105.933 77.4435 110.2 76.6969 115C75.9502 119.8 75.0969 125.133 74.1369 131C73.4969 134.627 72.7502 139 71.8969 144.12C71.1502 149.24 70.2435 155.053 69.1769 161.56H71.5769C72.9635 156.653 74.2435 152.173 75.4169 148.12C76.5902 144.067 77.6035 140.493 78.4569 137.4C79.3102 134.307 80.1102 131.533 80.8569 129.08C81.7102 126.52 82.4035 124.227 82.9369 122.2C85.1769 114.307 86.9902 107.853 88.3769 102.84C89.7635 97.8267 90.6702 94.5733 91.0969 93.08H92.5369C95.3102 93.08 98.1902 92.8667 101.177 92.44C104.27 92.0133 107.044 91.5333 109.497 91C109.39 91.4267 109.177 93.1867 108.857 96.28C108.537 99.3733 108.164 103.16 107.737 107.64C107.31 112.12 106.884 116.76 106.457 121.56C105.71 130.627 105.017 138.52 104.377 145.24C103.844 151.96 103.364 157.4 102.937 161.56H105.817L121.017 92.76L131.737 91.32C133.23 91.1067 134.777 90.8933 136.377 90.68C137.977 90.4667 139.63 90.2533 141.337 90.04C144.43 89.6133 147.364 89.1333 150.137 88.6C146.937 97.56 143.737 108.12 140.537 120.28C137.337 132.44 134.137 144.76 130.937 157.24C129.23 164.067 127.524 171 125.817 178.04C124.217 184.973 122.617 192.067 121.017 199.32L84.8569 205.4L91.8969 143.64H89.9769L74.1369 201.72L40.8569 207.64ZM158.413 207.64C151.373 207.64 145.613 204.92 141.133 199.48C136.653 194.04 134.413 185.827 134.413 174.84C134.413 168.76 135.16 162.36 136.653 155.64C138.146 148.92 140.226 142.307 142.893 135.8C145.56 129.293 148.653 123.267 152.173 117.72C157.826 108.76 164.333 101.453 171.693 95.8C179.053 90.1467 186.786 87.32 194.893 87.32C201.293 87.32 206.2 88.9733 209.613 92.28C213.133 95.48 215.586 99.64 216.973 104.76C218.36 109.773 219.053 115 219.053 120.44C219.053 133.133 217.08 144.973 213.133 155.96C209.293 166.84 204.28 176.067 198.093 183.64C191.906 191.427 185.293 197.4 178.253 201.56C171.32 205.613 164.706 207.64 158.413 207.64ZM167.053 181.24C171.853 181.24 176.066 179.64 179.693 176.44C183.426 173.24 186.573 169.187 189.133 164.28C191.693 159.267 193.613 154.04 194.893 148.6C196.173 143.16 196.813 138.253 196.813 133.88C196.813 132.173 196.653 130.36 196.333 128.44C196.013 126.413 195.32 124.653 194.253 123.16C193.186 121.667 191.533 120.92 189.293 120.92C184.386 120.92 179.96 122.733 176.013 126.36C172.066 129.88 168.76 134.36 166.093 139.8C163.426 145.347 161.453 150.787 160.173 156.12C158.893 161.453 158.253 166.307 158.253 170.68C158.253 172.92 159.053 175.267 160.653 177.72C162.253 180.067 164.386 181.24 167.053 181.24ZM209.319 207.8C210.813 200.227 212.253 192.813 213.639 185.56C215.133 178.2 216.573 170.947 217.959 163.8C219.453 155.48 220.946 147.053 222.439 138.52C224.039 129.987 225.479 121.667 226.759 113.56C228.146 105.453 229.213 97.9333 229.959 91C231.666 90.8933 233.319 90.7867 234.919 90.68C236.519 90.5733 238.066 90.4667 239.559 90.36C240.946 90.2533 242.333 90.1467 243.719 90.04C245.213 89.9333 246.653 89.8267 248.039 89.72L255.719 89.24C256.466 93.2933 257.106 97.2933 257.639 101.24C258.279 105.187 258.866 109.027 259.399 112.76C259.826 115.32 260.306 118.307 260.839 121.72C261.479 125.133 262.066 128.653 262.599 132.28C263.239 135.8 263.826 139.107 264.359 142.2C264.999 145.293 265.533 147.8 265.959 149.72C267.026 144.067 267.879 139.427 268.519 135.8C269.266 132.067 269.959 128.493 270.599 125.08C271.346 121.56 272.199 117.453 273.159 112.76L278.119 89.4L297.639 87C295.826 95 294.119 102.787 292.519 110.36C290.919 117.933 289.426 125.293 288.039 132.44C285.373 145.347 283.026 157.453 280.999 168.76C278.973 179.96 277.426 189.773 276.359 198.2L250.279 204.28L247.879 179.64C247.666 177.187 247.346 174.253 246.919 170.84C246.493 167.32 246.066 163.747 245.639 160.12C245.213 156.387 244.786 153.027 244.359 150.04C243.933 146.947 243.613 144.653 243.399 143.16C242.333 149.453 241.319 155.587 240.359 161.56C239.399 167.427 238.333 173.133 237.159 178.68C236.413 182.413 235.666 186.307 234.919 190.36C234.279 194.307 233.533 198.307 232.679 202.36L209.319 207.8ZM316.539 210.84C312.593 210.84 308.806 209.987 305.179 208.28C301.659 206.573 298.619 203.96 296.059 200.44C293.393 197.027 291.313 192.707 289.819 187.48C288.326 182.253 287.579 176.12 287.579 169.08C287.579 155.32 289.553 143.32 293.499 133.08C297.446 122.84 302.459 114.307 308.539 107.48C314.513 100.653 320.913 95.5867 327.739 92.28C334.673 88.9733 341.126 87.32 347.099 87.32C352.859 87.32 357.553 88.6 361.179 91.16C364.806 93.6133 367.473 96.92 369.179 101.08C370.886 105.24 371.739 109.88 371.739 115L349.819 119.16C348.859 114.893 347.579 111.853 345.979 110.04C344.379 108.227 342.566 107.32 340.539 107.32C338.193 107.32 335.739 108.6 333.179 111.16C330.726 113.72 328.273 117.187 325.819 121.56C323.473 125.827 321.339 130.627 319.419 135.96C317.499 141.293 315.899 146.787 314.619 152.44C313.446 158.093 312.753 163.427 312.539 168.44C312.539 175.053 313.499 179.8 315.419 182.68C317.446 185.453 320.006 186.84 323.099 186.84C326.086 186.84 329.019 185.88 331.899 183.96C334.886 182.04 337.339 179.48 339.259 176.28C341.286 172.973 342.353 169.293 342.459 165.24L325.339 167.8L328.379 151.96L343.099 150.04C347.153 149.507 351.419 148.867 355.899 148.12C360.486 147.373 364.486 146.68 367.899 146.04C367.153 156.92 365.019 166.467 361.499 174.68C358.086 182.787 353.819 189.507 348.699 194.84C343.579 200.173 338.193 204.173 332.539 206.84C326.993 209.507 321.659 210.84 316.539 210.84Z" fill="white"/>
</g>
<defs>
<clipPath id="clip0_97_118">
<rect width="394" height="302" fill="white"/>
</clipPath>
</defs>
</svg>
