<svg width="394" height="393" viewBox="0 0 394 393" fill="none" xmlns="http://www.w3.org/2000/svg">
<g clip-path="url(#clip0_97_244)">
<path d="M0 3.54999C0 1.58938 1.58939 0 3.55 0H390.45C392.411 0 394 1.58939 394 3.55V298.45C394 300.411 392.411 302 390.45 302H3.54999C1.58938 302 0 300.411 0 298.45V3.54999Z" fill="black"/>
<path d="M40.8569 207.64L53.0169 94.04C55.4702 93.9333 57.8702 93.7733 60.2169 93.56C62.6702 93.24 65.0169 92.8667 67.2569 92.44C69.3902 92.0133 71.5769 91.6933 73.8169 91.48C76.0569 91.16 78.2435 90.9467 80.3769 90.84L79.8969 94.04C79.7902 95.1067 79.5769 96.3333 79.2569 97.72C79.0435 99 78.8302 100.493 78.6169 102.2C78.0835 105.933 77.4435 110.2 76.6969 115C75.9502 119.8 75.0969 125.133 74.1369 131C73.4969 134.627 72.7502 139 71.8969 144.12C71.1502 149.24 70.2435 155.053 69.1769 161.56H71.5769C72.9635 156.653 74.2435 152.173 75.4169 148.12C76.5902 144.067 77.6035 140.493 78.4569 137.4C79.3102 134.307 80.1102 131.533 80.8569 129.08C81.7102 126.52 82.4035 124.227 82.9369 122.2C85.1769 114.307 86.9902 107.853 88.3769 102.84C89.7635 97.8267 90.6702 94.5733 91.0969 93.08H92.5369C95.3102 93.08 98.1902 92.8667 101.177 92.44C104.27 92.0133 107.044 91.5333 109.497 91C109.39 91.4267 109.177 93.1867 108.857 96.28C108.537 99.3733 108.164 103.16 107.737 107.64C107.31 112.12 106.884 116.76 106.457 121.56C105.71 130.627 105.017 138.52 104.377 145.24C103.844 151.96 103.364 157.4 102.937 161.56H105.817L121.017 92.76L131.737 91.32C133.23 91.1067 134.777 90.8933 136.377 90.68C137.977 90.4667 139.63 90.2533 141.337 90.04C144.43 89.6133 147.364 89.1333 150.137 88.6C146.937 97.56 143.737 108.12 140.537 120.28C137.337 132.44 134.137 144.76 130.937 157.24C129.23 164.067 127.524 171 125.817 178.04C124.217 184.973 122.617 192.067 121.017 199.32L84.8569 205.4L91.8969 143.64H89.9769L74.1369 201.72L40.8569 207.64ZM158.413 207.64C151.373 207.64 145.613 204.92 141.133 199.48C136.653 194.04 134.413 185.827 134.413 174.84C134.413 168.76 135.16 162.36 136.653 155.64C138.146 148.92 140.226 142.307 142.893 135.8C145.56 129.293 148.653 123.267 152.173 117.72C157.826 108.76 164.333 101.453 171.693 95.8C179.053 90.1467 186.786 87.32 194.893 87.32C201.293 87.32 206.2 88.9733 209.613 92.28C213.133 95.48 215.586 99.64 216.973 104.76C218.36 109.773 219.053 115 219.053 120.44C219.053 133.133 217.08 144.973 213.133 155.96C209.293 166.84 204.28 176.067 198.093 183.64C191.906 191.427 185.293 197.4 178.253 201.56C171.32 205.613 164.706 207.64 158.413 207.64ZM167.053 181.24C171.853 181.24 176.066 179.64 179.693 176.44C183.426 173.24 186.573 169.187 189.133 164.28C191.693 159.267 193.613 154.04 194.893 148.6C196.173 143.16 196.813 138.253 196.813 133.88C196.813 132.173 196.653 130.36 196.333 128.44C196.013 126.413 195.32 124.653 194.253 123.16C193.186 121.667 191.533 120.92 189.293 120.92C184.386 120.92 179.96 122.733 176.013 126.36C172.066 129.88 168.76 134.36 166.093 139.8C163.426 145.347 161.453 150.787 160.173 156.12C158.893 161.453 158.253 166.307 158.253 170.68C158.253 172.92 159.053 175.267 160.653 177.72C162.253 180.067 164.386 181.24 167.053 181.24ZM209.319 207.8C210.813 200.227 212.253 192.813 213.639 185.56C215.133 178.2 216.573 170.947 217.959 163.8C219.453 155.48 220.946 147.053 222.439 138.52C224.039 129.987 225.479 121.667 226.759 113.56C228.146 105.453 229.213 97.9333 229.959 91C231.666 90.8933 233.319 90.7867 234.919 90.68C236.519 90.5733 238.066 90.4667 239.559 90.36C240.946 90.2533 242.333 90.1467 243.719 90.04C245.213 89.9333 246.653 89.8267 248.039 89.72L255.719 89.24C256.466 93.2933 257.106 97.2933 257.639 101.24C258.279 105.187 258.866 109.027 259.399 112.76C259.826 115.32 260.306 118.307 260.839 121.72C261.479 125.133 262.066 128.653 262.599 132.28C263.239 135.8 263.826 139.107 264.359 142.2C264.999 145.293 265.533 147.8 265.959 149.72C267.026 144.067 267.879 139.427 268.519 135.8C269.266 132.067 269.959 128.493 270.599 125.08C271.346 121.56 272.199 117.453 273.159 112.76L278.119 89.4L297.639 87C295.826 95 294.119 102.787 292.519 110.36C290.919 117.933 289.426 125.293 288.039 132.44C285.373 145.347 283.026 157.453 280.999 168.76C278.973 179.96 277.426 189.773 276.359 198.2L250.279 204.28L247.879 179.64C247.666 177.187 247.346 174.253 246.919 170.84C246.493 167.32 246.066 163.747 245.639 160.12C245.213 156.387 244.786 153.027 244.359 150.04C243.933 146.947 243.613 144.653 243.399 143.16C242.333 149.453 241.319 155.587 240.359 161.56C239.399 167.427 238.333 173.133 237.159 178.68C236.413 182.413 235.666 186.307 234.919 190.36C234.279 194.307 233.533 198.307 232.679 202.36L209.319 207.8ZM316.539 210.84C312.593 210.84 308.806 209.987 305.179 208.28C301.659 206.573 298.619 203.96 296.059 200.44C293.393 197.027 291.313 192.707 289.819 187.48C288.326 182.253 287.579 176.12 287.579 169.08C287.579 155.32 289.553 143.32 293.499 133.08C297.446 122.84 302.459 114.307 308.539 107.48C314.513 100.653 320.913 95.5867 327.739 92.28C334.673 88.9733 341.126 87.32 347.099 87.32C352.859 87.32 357.553 88.6 361.179 91.16C364.806 93.6133 367.473 96.92 369.179 101.08C370.886 105.24 371.739 109.88 371.739 115L349.819 119.16C348.859 114.893 347.579 111.853 345.979 110.04C344.379 108.227 342.566 107.32 340.539 107.32C338.193 107.32 335.739 108.6 333.179 111.16C330.726 113.72 328.273 117.187 325.819 121.56C323.473 125.827 321.339 130.627 319.419 135.96C317.499 141.293 315.899 146.787 314.619 152.44C313.446 158.093 312.753 163.427 312.539 168.44C312.539 175.053 313.499 179.8 315.419 182.68C317.446 185.453 320.006 186.84 323.099 186.84C326.086 186.84 329.019 185.88 331.899 183.96C334.886 182.04 337.339 179.48 339.259 176.28C341.286 172.973 342.353 169.293 342.459 165.24L325.339 167.8L328.379 151.96L343.099 150.04C347.153 149.507 351.419 148.867 355.899 148.12C360.486 147.373 364.486 146.68 367.899 146.04C367.153 156.92 365.019 166.467 361.499 174.68C358.086 182.787 353.819 189.507 348.699 194.84C343.579 200.173 338.193 204.173 332.539 206.84C326.993 209.507 321.659 210.84 316.539 210.84Z" fill="white"/>
</g>
<path d="M171.914 368.769V361.967L165.973 350.315H169.046L173.272 359.226L177.472 350.315H180.519L174.629 361.967V368.769H171.914Z" fill="white"/>
<path d="M149.764 368.769V350.315H156.525C158.386 350.315 159.795 350.763 160.751 351.66C161.707 352.556 162.185 353.681 162.185 355.034C162.185 356.212 161.877 357.152 161.263 357.855C160.648 358.541 159.905 359.006 159.035 359.252C159.718 359.393 160.324 359.674 160.853 360.096C161.4 360.518 161.826 361.045 162.134 361.677C162.441 362.311 162.595 362.996 162.595 363.734C162.595 364.683 162.364 365.544 161.903 366.318C161.46 367.073 160.802 367.671 159.931 368.11C159.06 368.549 157.993 368.769 156.73 368.769H149.764ZM152.479 358.224H156.192C157.233 358.224 158.028 357.978 158.574 357.486C159.12 356.976 159.393 356.282 159.393 355.403C159.393 354.542 159.12 353.856 158.574 353.347C158.044 352.837 157.233 352.582 156.141 352.582H152.479V358.224ZM152.479 366.476H156.372C157.464 366.476 158.309 366.212 158.907 365.684C159.521 365.157 159.828 364.42 159.828 363.47C159.828 362.521 159.513 361.774 158.881 361.229C158.249 360.667 157.396 360.386 156.32 360.386H152.479V366.476Z" fill="white"/>
<path d="M120.182 368.769V350.315H125.996C128.096 350.315 129.82 350.693 131.169 351.448C132.535 352.204 133.542 353.277 134.191 354.665C134.857 356.036 135.189 357.67 135.189 359.568C135.189 361.449 134.857 363.084 134.191 364.472C133.542 365.843 132.535 366.907 131.169 367.662C129.82 368.4 128.096 368.769 125.996 368.769H120.182ZM122.897 366.397H125.893C127.515 366.397 128.796 366.124 129.735 365.579C130.691 365.035 131.373 364.252 131.784 363.233C132.21 362.213 132.424 360.992 132.424 359.568C132.424 358.145 132.21 356.915 131.784 355.878C131.373 354.84 130.691 354.05 129.735 353.505C128.796 352.943 127.515 352.661 125.893 352.661H122.897V366.397Z" fill="white"/>
<path d="M102.991 368.769V350.315H114.387V352.582H105.705V358.33H113.619V360.544H105.705V366.502H114.387V368.769H102.991Z" fill="white"/>
<path d="M84.8481 368.769V350.315H91.0201C92.4369 350.315 93.5985 350.562 94.5033 351.053C95.4249 351.546 96.1081 352.213 96.5521 353.057C96.9961 353.883 97.2177 354.806 97.2177 355.825C97.2177 356.968 96.9193 358.004 96.3217 358.936C95.7409 359.867 94.8273 360.535 93.5809 360.939L97.3969 368.769H94.2473L90.7641 361.335H87.5625V368.769H84.8481ZM87.5625 359.226H90.8665C92.0961 359.226 92.9921 358.919 93.5553 358.303C94.1361 357.688 94.4265 356.889 94.4265 355.904C94.4265 354.92 94.1449 354.138 93.5809 353.557C93.0177 352.96 92.1041 352.661 90.8409 352.661H87.5625V359.226Z" fill="white"/>
<path d="M67.6562 368.769V350.315H79.0525V352.582H70.371V358.33H78.2845V360.544H70.371V366.502H79.0525V368.769H67.6562Z" fill="white"/>
<path d="M43.4228 368.796L38.5825 350.315H41.5021L45.0619 365.605L49.1595 350.315H52.1559L56.1254 365.605L59.6852 350.315H62.6048L57.6876 368.769H54.512L50.5936 354.296L46.5472 368.769L43.4228 368.796Z" fill="white"/>
<path d="M26.0138 369.086C24.2382 369.086 22.6845 368.682 21.3528 367.874C20.0211 367.066 18.9796 365.95 18.2284 364.526C17.4772 363.085 17.1016 361.424 17.1016 359.544C17.1016 357.663 17.4772 356.011 18.2284 354.587C18.9796 353.146 20.0211 352.021 21.3528 351.213C22.6845 350.404 24.2382 350 26.0138 350C27.7895 350 29.3432 350.404 30.6748 351.213C32.0066 352.021 33.0395 353.146 33.7736 354.587C34.5249 356.011 34.9005 357.663 34.9005 359.544C34.9005 361.424 34.5249 363.085 33.7736 364.526C33.0395 365.95 32.0066 367.066 30.6748 367.874C29.3432 368.682 27.7895 369.086 26.0138 369.086ZM26.0138 366.582C27.2431 366.582 28.3102 366.301 29.2151 365.739C30.1371 365.176 30.8541 364.368 31.3664 363.313C31.8785 362.259 32.1346 361.002 32.1346 359.544C32.1346 358.084 31.8785 356.828 31.3664 355.774C30.8541 354.719 30.1371 353.911 29.2151 353.348C28.3102 352.786 27.2431 352.504 26.0138 352.504C24.7845 352.504 23.7089 352.786 22.7869 353.348C21.865 353.911 21.1479 354.719 20.6357 355.774C20.1406 356.828 19.893 358.084 19.893 359.544C19.893 361.002 20.1406 362.259 20.6357 363.313C21.1479 364.368 21.865 365.176 22.7869 365.739C23.7089 366.301 24.7845 366.582 26.0138 366.582Z" fill="white"/>
<path d="M0 368.769V350.315H6.27447C7.67447 350.315 8.83543 350.562 9.75743 351.053C10.6794 351.528 11.3623 352.187 11.8062 353.03C12.2672 353.856 12.4977 354.797 12.4977 355.852C12.4977 356.853 12.2758 357.775 11.8318 358.62C11.405 359.446 10.7306 360.104 9.80863 360.597C8.88671 361.088 7.70863 361.335 6.27447 361.335H2.71466V368.769H0ZM2.71466 359.041H6.14639C7.42695 359.041 8.34031 358.76 8.88671 358.198C9.45007 357.617 9.73183 356.836 9.73183 355.852C9.73183 354.832 9.45007 354.041 8.88671 353.478C8.34031 352.899 7.42695 352.609 6.14639 352.609H2.71466V359.041Z" fill="white"/>
<mask id="path-12-inside-1_97_244" fill="white">
<path fill-rule="evenodd" clip-rule="evenodd" d="M205.756 327C205.339 327 205 327.339 205 327.756V392.056C205 392.473 205.339 392.812 205.756 392.812H392.602C393.02 392.812 393.359 392.473 393.359 392.056V327.756C393.359 327.339 393.02 327 392.602 327H205.756ZM235.354 341.737H228.673L224.365 377.563H229.738L230.368 369.769H233.369L233.999 377.563H239.663L235.354 341.737ZM230.755 365.024L231.336 357.666L231.772 351.469H231.917L232.353 357.666L232.982 365.024H230.755ZM245.774 377.563H251.535V364.056H253.326C257.442 364.056 259.959 361.635 259.959 357.327V348.515C259.959 344.158 257.442 341.737 253.326 341.737H245.774V377.563ZM252.842 359.747H251.584V346.046H252.842C253.811 346.046 254.198 346.918 254.198 348.515V357.327C254.198 358.876 253.811 359.747 252.842 359.747ZM266.596 341.737V377.563H277.827V372.819H272.357V361.829H277.246V357.085H272.357V346.482H277.827V341.737H266.596ZM297.667 370.737V363.039H292.244V371.221C292.244 372.674 291.857 373.545 290.937 373.545C289.969 373.545 289.582 372.674 289.582 371.221V348.128C289.582 346.627 289.969 345.756 290.937 345.756C291.857 345.756 292.244 346.627 292.244 348.128V355.971H297.667V348.564C297.667 343.916 295.343 341.35 290.937 341.35C286.532 341.35 283.82 343.916 283.82 348.564V370.737C283.82 375.385 286.532 377.951 290.937 377.951C295.343 377.951 297.667 375.385 297.667 370.737ZM313.27 361.926V377.563H319.031V341.737H313.27V357.036H310.171V341.737H304.362V377.563H310.171V361.926H313.27ZM336.106 341.737H329.424L325.116 377.563H330.49L331.119 369.769H334.121L334.75 377.563H340.414L336.106 341.737ZM331.506 365.024L332.087 357.666L332.523 351.469H332.668L333.104 357.666L333.733 365.024H331.506ZM346.525 341.737V377.563H352.335V341.737H346.525ZM368.508 359.699L365.458 341.737H359.309V377.563H364.296V356.6H364.393L368.459 377.563H373.591V341.737H368.605V359.699H368.508Z"/>
</mask>
<path fill-rule="evenodd" clip-rule="evenodd" d="M205.756 327C205.339 327 205 327.339 205 327.756V392.056C205 392.473 205.339 392.812 205.756 392.812H392.602C393.02 392.812 393.359 392.473 393.359 392.056V327.756C393.359 327.339 393.02 327 392.602 327H205.756ZM235.354 341.737H228.673L224.365 377.563H229.738L230.368 369.769H233.369L233.999 377.563H239.663L235.354 341.737ZM230.755 365.024L231.336 357.666L231.772 351.469H231.917L232.353 357.666L232.982 365.024H230.755ZM245.774 377.563H251.535V364.056H253.326C257.442 364.056 259.959 361.635 259.959 357.327V348.515C259.959 344.158 257.442 341.737 253.326 341.737H245.774V377.563ZM252.842 359.747H251.584V346.046H252.842C253.811 346.046 254.198 346.918 254.198 348.515V357.327C254.198 358.876 253.811 359.747 252.842 359.747ZM266.596 341.737V377.563H277.827V372.819H272.357V361.829H277.246V357.085H272.357V346.482H277.827V341.737H266.596ZM297.667 370.737V363.039H292.244V371.221C292.244 372.674 291.857 373.545 290.937 373.545C289.969 373.545 289.582 372.674 289.582 371.221V348.128C289.582 346.627 289.969 345.756 290.937 345.756C291.857 345.756 292.244 346.627 292.244 348.128V355.971H297.667V348.564C297.667 343.916 295.343 341.35 290.937 341.35C286.532 341.35 283.82 343.916 283.82 348.564V370.737C283.82 375.385 286.532 377.951 290.937 377.951C295.343 377.951 297.667 375.385 297.667 370.737ZM313.27 361.926V377.563H319.031V341.737H313.27V357.036H310.171V341.737H304.362V377.563H310.171V361.926H313.27ZM336.106 341.737H329.424L325.116 377.563H330.49L331.119 369.769H334.121L334.75 377.563H340.414L336.106 341.737ZM331.506 365.024L332.087 357.666L332.523 351.469H332.668L333.104 357.666L333.733 365.024H331.506ZM346.525 341.737V377.563H352.335V341.737H346.525ZM368.508 359.699L365.458 341.737H359.309V377.563H364.296V356.6H364.393L368.459 377.563H373.591V341.737H368.605V359.699H368.508Z" fill="white"/>
<path d="M228.673 341.737V336.442H223.977L223.416 341.105L228.673 341.737ZM235.354 341.737L240.612 341.105L240.051 336.442H235.354V341.737ZM224.365 377.563L219.107 376.931L218.394 382.859H224.365V377.563ZM229.738 377.563V382.859H234.623L235.017 377.99L229.738 377.563ZM230.368 369.769V364.474H225.483L225.09 369.343L230.368 369.769ZM233.369 369.769L238.648 369.343L238.254 364.474H233.369V369.769ZM233.999 377.563L228.721 377.99L229.114 382.859H233.999V377.563ZM239.663 377.563V382.859H245.633L244.921 376.931L239.663 377.563ZM231.336 357.666L236.615 358.082L236.617 358.06L236.618 358.037L231.336 357.666ZM230.755 365.024L225.476 364.608L225.025 370.32H230.755V365.024ZM231.772 351.469V346.173H226.836L226.49 351.097L231.772 351.469ZM231.917 351.469L237.199 351.097L236.853 346.173H231.917V351.469ZM232.353 357.666L227.071 358.037L227.073 358.077L227.077 358.117L232.353 357.666ZM232.982 365.024V370.32H238.75L238.258 364.573L232.982 365.024ZM251.535 377.563V382.859H256.83V377.563H251.535ZM245.774 377.563H240.479V382.859H245.774V377.563ZM251.535 364.056V358.761H246.24V364.056H251.535ZM245.774 341.737V336.442H240.479V341.737H245.774ZM251.584 359.747H246.288V365.043H251.584V359.747ZM251.584 346.046V340.751H246.288V346.046H251.584ZM266.596 377.563H261.3V382.859H266.596V377.563ZM266.596 341.737V336.442H261.3V341.737H266.596ZM277.827 377.563V382.859H283.123V377.563H277.827ZM277.827 372.819H283.123V367.524H277.827V372.819ZM272.357 372.819H267.061V378.114H272.357V372.819ZM272.357 361.829V356.534H267.061V361.829H272.357ZM277.246 361.829V367.124H282.542V361.829H277.246ZM277.246 357.085H282.542V351.789H277.246V357.085ZM272.357 357.085H267.061V362.38H272.357V357.085ZM272.357 346.482V341.187H267.061V346.482H272.357ZM277.827 346.482V351.777H283.123V346.482H277.827ZM277.827 341.737H283.123V336.442H277.827V341.737ZM297.667 363.039H302.962V357.744H297.667V363.039ZM292.244 363.039V357.744H286.949V363.039H292.244ZM292.244 355.971H286.949V361.266H292.244V355.971ZM297.667 355.971V361.266H302.962V355.971H297.667ZM313.27 377.563H307.975V382.859H313.27V377.563ZM313.27 361.926H318.565V356.631H313.27V361.926ZM319.031 377.563V382.859H324.326V377.563H319.031ZM319.031 341.737H324.326V336.442H319.031V341.737ZM313.27 341.737V336.442H307.975V341.737H313.27ZM313.27 357.036V362.331H318.565V357.036H313.27ZM310.171 357.036H304.876V362.331H310.171V357.036ZM310.171 341.737H315.467V336.442H310.171V341.737ZM304.362 341.737V336.442H299.067V341.737H304.362ZM304.362 377.563H299.067V382.859H304.362V377.563ZM310.171 377.563V382.859H315.467V377.563H310.171ZM310.171 361.926V356.631H304.876V361.926H310.171ZM329.424 341.737V336.442H324.728L324.167 341.105L329.424 341.737ZM336.106 341.737L341.363 341.105L340.802 336.442H336.106V341.737ZM325.116 377.563L319.858 376.931L319.145 382.859H325.116V377.563ZM330.49 377.563V382.859H335.374L335.768 377.99L330.49 377.563ZM331.119 369.769V364.474H326.234L325.841 369.343L331.119 369.769ZM334.121 369.769L339.399 369.343L339.005 364.474H334.121V369.769ZM334.75 377.563L329.472 377.99L329.865 382.859H334.75V377.563ZM340.414 377.563V382.859H346.385L345.672 376.931L340.414 377.563ZM332.087 357.666L337.366 358.082L337.368 358.06L337.369 358.037L332.087 357.666ZM331.506 365.024L326.227 364.608L325.777 370.32H331.506V365.024ZM332.523 351.469V346.173H327.587L327.241 351.097L332.523 351.469ZM332.668 351.469L337.95 351.097L337.604 346.173H332.668V351.469ZM333.104 357.666L327.822 358.037L327.825 358.077L327.828 358.117L333.104 357.666ZM333.733 365.024V370.32H339.501L339.009 364.573L333.733 365.024ZM346.525 377.563H341.23V382.859H346.525V377.563ZM346.525 341.737V336.442H341.23V341.737H346.525ZM352.335 377.563V382.859H357.63V377.563H352.335ZM352.335 341.737H357.63V336.442H352.335V341.737ZM365.458 341.737L370.678 340.851L369.93 336.442H365.458V341.737ZM368.508 359.699L363.287 360.585L364.036 364.994H368.508V359.699ZM359.309 341.737V336.442H354.014V341.737H359.309ZM359.309 377.563H354.014V382.859H359.309V377.563ZM364.296 377.563V382.859H369.591V377.563H364.296ZM364.296 356.6V351.305H359.001V356.6H364.296ZM364.393 356.6L369.591 355.592L368.759 351.305H364.393V356.6ZM368.459 377.563L363.261 378.572L364.093 382.859H368.459V377.563ZM373.591 377.563V382.859H378.886V377.563H373.591ZM373.591 341.737H378.886V336.442H373.591V341.737ZM368.605 341.737V336.442H363.309V341.737H368.605ZM368.605 359.699V364.994H373.9V359.699H368.605ZM210.295 327.756C210.295 330.263 208.263 332.295 205.756 332.295V321.705C202.414 321.705 199.705 324.414 199.705 327.756H210.295ZM210.295 392.056V327.756H199.705V392.056H210.295ZM205.756 387.517C208.263 387.517 210.295 389.549 210.295 392.056H199.705C199.705 395.398 202.414 398.107 205.756 398.107V387.517ZM392.602 387.517H205.756V398.107H392.602V387.517ZM388.063 392.056C388.063 389.549 390.095 387.517 392.602 387.517V398.107C395.944 398.107 398.654 395.398 398.654 392.056H388.063ZM388.063 327.756V392.056H398.654V327.756H388.063ZM392.602 332.295C390.095 332.295 388.063 330.263 388.063 327.756H398.654C398.654 324.414 395.945 321.705 392.602 321.705V332.295ZM205.756 332.295H392.602V321.705H205.756V332.295ZM228.673 347.033H235.354V336.442H228.673V347.033ZM229.622 378.196L233.931 342.37L223.416 341.105L219.107 376.931L229.622 378.196ZM229.738 372.268H224.365V382.859H229.738V372.268ZM225.09 369.343L224.46 377.137L235.017 377.99L235.646 370.195L225.09 369.343ZM233.369 364.474H230.368V375.064H233.369V364.474ZM239.277 377.137L238.648 369.343L228.091 370.195L228.721 377.99L239.277 377.137ZM239.663 372.268H233.999V382.859H239.663V372.268ZM230.097 342.37L234.406 378.196L244.921 376.931L240.612 341.105L230.097 342.37ZM226.057 357.249L225.476 364.608L236.034 365.441L236.615 358.082L226.057 357.249ZM226.49 351.097L226.054 357.294L236.618 358.037L237.054 351.84L226.49 351.097ZM231.917 346.173H231.772V356.764H231.917V346.173ZM237.635 357.294L237.199 351.097L226.635 351.84L227.071 358.037L237.635 357.294ZM238.258 364.573L237.629 357.214L227.077 358.117L227.706 365.476L238.258 364.573ZM230.755 370.32H232.982V359.729H230.755V370.32ZM251.535 372.268H245.774V382.859H251.535V372.268ZM246.24 364.056V377.563H256.83V364.056H246.24ZM253.326 358.761H251.535V369.351H253.326V358.761ZM254.664 357.327C254.664 358.453 254.355 358.65 254.442 358.563C254.526 358.478 254.351 358.761 253.326 358.761V369.351C256.417 369.351 259.558 368.423 261.93 366.051C264.305 363.677 265.254 360.509 265.254 357.327H254.664ZM254.664 348.515V357.327H265.254V348.515H254.664ZM253.326 347.033C254.351 347.033 254.519 347.314 254.432 347.227C254.346 347.14 254.664 347.349 254.664 348.515H265.254C265.254 345.324 264.314 342.144 261.94 339.758C259.565 337.371 256.417 336.442 253.326 336.442V347.033ZM245.774 347.033H253.326V336.442H245.774V347.033ZM251.069 377.563V341.737H240.479V377.563H251.069ZM251.584 365.043H252.842V354.452H251.584V365.043ZM246.288 346.046V359.747H256.879V346.046H246.288ZM252.842 340.751H251.584V351.341H252.842V340.751ZM259.493 348.515C259.493 347.483 259.402 345.811 258.578 344.232C258.117 343.349 257.378 342.403 256.248 341.704C255.109 340.999 253.903 340.751 252.842 340.751V351.341C252.265 351.341 251.472 351.202 250.677 350.711C249.892 350.225 249.432 349.597 249.189 349.131C248.964 348.7 248.909 348.384 248.9 348.332C248.889 348.267 248.903 348.313 248.903 348.515H259.493ZM259.493 357.327V348.515H248.903V357.327H259.493ZM252.842 365.043C253.904 365.043 255.102 364.794 256.233 364.099C257.357 363.41 258.098 362.475 258.563 361.595C259.398 360.019 259.493 358.353 259.493 357.327H248.903C248.903 357.85 248.804 357.394 249.203 356.64C249.451 356.173 249.913 355.552 250.692 355.074C251.479 354.591 252.265 354.452 252.842 354.452V365.043ZM271.891 377.563V341.737H261.3V377.563H271.891ZM277.827 372.268H266.596V382.859H277.827V372.268ZM272.532 372.819V377.563H283.123V372.819H272.532ZM272.357 378.114H277.827V367.524H272.357V378.114ZM267.061 361.829V372.819H277.652V361.829H267.061ZM277.246 356.534H272.357V367.124H277.246V356.534ZM271.951 357.085V361.829H282.542V357.085H271.951ZM272.357 362.38H277.246V351.789H272.357V362.38ZM267.061 346.482V357.085H277.652V346.482H267.061ZM277.827 341.187H272.357V351.777H277.827V341.187ZM272.532 341.737V346.482H283.123V341.737H272.532ZM266.596 347.033H277.827V336.442H266.596V347.033ZM292.372 363.039V370.737H302.962V363.039H292.372ZM292.244 368.335H297.667V357.744H292.244V368.335ZM297.54 371.221V363.039H286.949V371.221H297.54ZM290.937 378.84C292.037 378.84 293.239 378.568 294.353 377.866C295.447 377.177 296.164 376.257 296.614 375.409C297.432 373.866 297.54 372.247 297.54 371.221H286.949C286.949 371.648 286.863 371.19 287.258 370.447C287.496 369.998 287.943 369.387 288.707 368.906C289.489 368.413 290.297 368.25 290.937 368.25V378.84ZM284.286 371.221C284.286 372.238 284.391 373.893 285.248 375.463C285.722 376.333 286.466 377.245 287.575 377.916C288.692 378.592 289.876 378.84 290.937 378.84V368.25C291.515 368.25 292.287 368.389 293.059 368.856C293.823 369.319 294.288 369.922 294.545 370.392C294.966 371.164 294.877 371.657 294.877 371.221H284.286ZM284.286 348.128V371.221H294.877V348.128H284.286ZM290.937 340.461C289.876 340.461 288.685 340.709 287.561 341.394C286.444 342.075 285.702 342.998 285.232 343.873C284.386 345.447 284.286 347.107 284.286 348.128H294.877C294.877 347.648 294.971 348.122 294.561 348.885C294.309 349.355 293.845 349.966 293.073 350.437C292.294 350.912 291.514 351.051 290.937 351.051V340.461ZM297.54 348.128C297.54 347.098 297.436 345.473 296.629 343.927C296.184 343.074 295.469 342.144 294.367 341.445C293.246 340.733 292.037 340.461 290.937 340.461V351.051C290.297 351.051 289.482 350.888 288.692 350.386C287.922 349.897 287.476 349.279 287.242 348.831C286.859 348.097 286.949 347.657 286.949 348.128H297.54ZM297.54 355.971V348.128H286.949V355.971H297.54ZM297.667 350.676H292.244V361.266H297.667V350.676ZM292.372 348.564V355.971H302.962V348.564H292.372ZM290.937 346.645C291.533 346.645 291.858 346.733 291.993 346.783C292.105 346.826 292.099 346.844 292.068 346.811C291.995 346.732 292.372 347.057 292.372 348.564H302.962C302.962 345.423 302.177 342.141 299.84 339.617C297.441 337.025 294.173 336.055 290.937 336.055V346.645ZM289.116 348.564C289.116 347.911 289.211 347.501 289.293 347.275C289.37 347.063 289.441 346.989 289.462 346.968C289.484 346.946 289.555 346.88 289.753 346.808C289.966 346.732 290.344 346.645 290.937 346.645V336.055C287.716 336.055 284.454 337.011 281.992 339.461C279.523 341.917 278.525 345.213 278.525 348.564H289.116ZM289.116 370.737V348.564H278.525V370.737H289.116ZM290.937 372.656C290.344 372.656 289.966 372.569 289.753 372.493C289.555 372.421 289.484 372.355 289.462 372.333C289.441 372.312 289.37 372.238 289.293 372.026C289.211 371.799 289.116 371.39 289.116 370.737H278.525C278.525 374.088 279.523 377.384 281.992 379.84C284.454 382.29 287.716 383.246 290.937 383.246V372.656ZM292.372 370.737C292.372 372.244 291.995 372.569 292.068 372.49C292.099 372.457 292.105 372.475 291.993 372.517C291.858 372.568 291.533 372.656 290.937 372.656V383.246C294.173 383.246 297.441 382.276 299.84 379.684C302.177 377.16 302.962 373.878 302.962 370.737H292.372ZM318.565 377.563V361.926H307.975V377.563H318.565ZM319.031 372.268H313.27V382.859H319.031V372.268ZM313.736 341.737V377.563H324.326V341.737H313.736ZM313.27 347.033H319.031V336.442H313.27V347.033ZM318.565 357.036V341.737H307.975V357.036H318.565ZM310.171 362.331H313.27V351.741H310.171V362.331ZM304.876 341.737V357.036H315.467V341.737H304.876ZM304.362 347.033H310.171V336.442H304.362V347.033ZM309.657 377.563V341.737H299.067V377.563H309.657ZM310.171 372.268H304.362V382.859H310.171V372.268ZM304.876 361.926V377.563H315.467V361.926H304.876ZM313.27 356.631H310.171V367.221H313.27V356.631ZM329.424 347.033H336.106V336.442H329.424V347.033ZM330.373 378.196L334.682 342.37L324.167 341.105L319.858 376.931L330.373 378.196ZM330.49 372.268H325.116V382.859H330.49V372.268ZM325.841 369.343L325.212 377.137L335.768 377.99L336.397 370.195L325.841 369.343ZM334.121 364.474H331.119V375.064H334.121V364.474ZM340.028 377.137L339.399 369.343L328.843 370.195L329.472 377.99L340.028 377.137ZM340.414 372.268H334.75V382.859H340.414V372.268ZM330.848 342.37L335.157 378.196L345.672 376.931L341.363 341.105L330.848 342.37ZM326.808 357.249L326.227 364.608L336.785 365.441L337.366 358.082L326.808 357.249ZM327.241 351.097L326.805 357.294L337.369 358.037L337.805 351.84L327.241 351.097ZM332.668 346.173H332.523V356.764H332.668V346.173ZM338.386 357.294L337.95 351.097L327.386 351.84L327.822 358.037L338.386 357.294ZM339.009 364.573L338.38 357.214L327.828 358.117L328.457 365.476L339.009 364.573ZM331.506 370.32H333.733V359.729H331.506V370.32ZM351.82 377.563V341.737H341.23V377.563H351.82ZM352.335 372.268H346.525V382.859H352.335V372.268ZM347.039 341.737V377.563H357.63V341.737H347.039ZM346.525 347.033H352.335V336.442H346.525V347.033ZM360.237 342.624L363.287 360.585L373.728 358.812L370.678 340.851L360.237 342.624ZM359.309 347.033H365.458V336.442H359.309V347.033ZM364.604 377.563V341.737H354.014V377.563H364.604ZM364.296 372.268H359.309V382.859H364.296V372.268ZM359.001 356.6V377.563H369.591V356.6H359.001ZM364.393 351.305H364.296V361.896H364.393V351.305ZM373.658 376.555L369.591 355.592L359.194 357.609L363.261 378.572L373.658 376.555ZM373.591 372.268H368.459V382.859H373.591V372.268ZM368.296 341.737V377.563H378.886V341.737H368.296ZM368.605 347.033H373.591V336.442H368.605V347.033ZM373.9 359.699V341.737H363.309V359.699H373.9ZM368.508 364.994H368.605V354.404H368.508V364.994Z" fill="white" mask="url(#path-12-inside-1_97_244)"/>
<defs>
<clipPath id="clip0_97_244">
<rect width="394" height="302" fill="white"/>
</clipPath>
</defs>
</svg>
